<svg xmlns="http://www.w3.org/2000/svg" viewBox="0 0 94 18" width="94" height="18"><defs><clipPath id="h"><rect x="0" y="0" width="9" height="18"/></clipPath></defs><path transform="translate(0 .5)" d="M9,0.8 L11.3,6.1 L17,6.6 L12.7,10.4 L14,16 L9,13.1 L4,16 L5.3,10.4 L1,6.6 L6.7,6.1 Z" fill="#E93D8D"/><path transform="translate(19 .5)" d="M9,0.8 L11.3,6.1 L17,6.6 L12.7,10.4 L14,16 L9,13.1 L4,16 L5.3,10.4 L1,6.6 L6.7,6.1 Z" fill="#E93D8D"/><path transform="translate(38 .5)" d="M9,0.8 L11.3,6.1 L17,6.6 L12.7,10.4 L14,16 L9,13.1 L4,16 L5.3,10.4 L1,6.6 L6.7,6.1 Z" fill="#E93D8D"/><path transform="translate(57 .5)" d="M9,0.8 L11.3,6.1 L17,6.6 L12.7,10.4 L14,16 L9,13.1 L4,16 L5.3,10.4 L1,6.6 L6.7,6.1 Z" fill="#E93D8D"/><g transform="translate(76 .5)"><path d="M9,0.8 L11.3,6.1 L17,6.6 L12.7,10.4 L14,16 L9,13.1 L4,16 L5.3,10.4 L1,6.6 L6.7,6.1 Z" fill="#D8D7DE"/><path d="M9,0.8 L11.3,6.1 L17,6.6 L12.7,10.4 L14,16 L9,13.1 L4,16 L5.3,10.4 L1,6.6 L6.7,6.1 Z" fill="#E93D8D" clip-path="url(#h)"/></g></svg>